<?xml version="1.0" encoding="UTF-8" standalone="no"?>
<svg width="145px" height="40px" viewBox="0 0 145 40" version="1.1" xmlns="http://www.w3.org/2000/svg" xmlns:xlink="http://www.w3.org/1999/xlink">
    <!-- Generator: Sketch 49.3 (51167) - http://www.bohemiancoding.com/sketch -->
    <title>HERZOG</title>
    <desc>Created with Sketch.</desc>
    <defs>
        <path d="M8.98203778,3.29266027 L10.779808,3.29266027 C11.6995974,3.29266027 11.9922577,3.96159802 11.9922577,4.46330133 L11.9922577,32.5586869 L8.98203778,32.5586869 L8.98203778,19.807061 C8.94022917,19.4307835 8.64756891,19.1381233 8.27129142,19.1381233 L5.01021988,19.1381233 L5.01021988,32.5586869 L2,32.5586869 L2,4.46330133 C2,3.96159802 2.29266027,3.29266027 3.21244967,3.29266027 L5.01021988,3.29266027 L5.01021988,15.1244967 C5.01021988,15.9606689 5.34468876,16.169712 6.05543512,16.169712 L8.98203778,16.169712 L8.98203778,3.29266027 Z M31.6841127,29.5902756 L37.9554041,29.5902756 C37.6209353,30.3428306 37.119232,31.5134717 36.9938061,31.7643233 C36.7847631,32.1406008 36.3248684,32.5586869 35.3632704,32.5586869 L28.6738928,32.5586869 L28.6738928,4.12883246 C28.7157015,3.66893775 29.0919789,3.29266027 29.5936823,3.29266027 L37.4118922,3.29266027 L36.4084856,5.46670796 C36.2412512,5.84298544 35.7813565,6.30288015 34.8197584,6.30288015 L32.3948591,6.30288015 C31.976773,6.30288015 31.6841127,6.59554041 31.6841127,7.01362651 L31.6841127,15.7098173 L36.1994426,15.7098173 C35.8649737,16.4623723 35.3632704,17.6748219 35.2378445,17.9256736 C35.0288015,18.3019511 34.6107154,18.7200372 33.6491174,18.7200372 L32.3948591,18.7200372 C32.0185816,18.7200372 31.6841127,19.054506 31.6841127,19.4307835 L31.6841127,29.5902756 Z M61.6608857,32.5586869 L58.6506658,32.5586869 L58.6506658,21.8556829 C58.6506658,20.4341902 57.8981109,19.9742954 57.1037473,19.9742954 L55.5150201,19.9742954 L55.5150201,32.5586869 L52.5048002,32.5586869 L52.5048002,3.29266027 L57.9817281,3.29266027 C59.9885413,3.29266027 61.6608857,4.92319604 61.6608857,6.9718179 L61.6608857,16.0024775 C61.6608857,16.0024775 61.7863116,18.3019511 60.5738619,18.5946113 C61.7445029,19.1799319 61.6608857,21.3539796 61.6608857,21.3539796 L61.6608857,32.5586869 Z M55.5150201,17.13131 L57.1037473,17.13131 C57.8981109,17.13131 58.6506658,16.7968411 58.6506658,15.4589656 L58.6506658,7.59894704 C58.6506658,6.5119232 57.8981109,6.0938371 57.1037473,6.0938371 L55.5150201,6.0938371 L55.5150201,17.13131 Z M88.4602044,3.29266027 L79.8058222,28.795912 C79.6803964,29.2976154 79.9312481,29.5902756 80.3493342,29.5902756 L88.502013,29.5902756 L87.540415,31.7225147 C87.3313719,32.1406008 86.9132858,32.5586869 85.9516878,32.5586869 L75.0396408,32.5586869 L83.6522143,7.01362651 C83.7358315,6.63734902 83.5685971,6.30288015 83.0668938,6.30288015 L79.6803964,6.30288015 C78.7187984,6.30288015 78.2589037,5.84298544 78.0498606,5.46670796 C77.9244348,5.2158563 77.4227315,4.04521524 77.0882626,3.29266027 L88.4602044,3.29266027 Z M106.228863,3 L108.528337,3 C110.53515,3.08361722 112.165686,4.71415299 112.165686,6.72096624 L112.165686,29.1721895 C112.123877,31.1790028 110.53515,32.7677299 108.528337,32.8513472 L106.228863,32.8513472 C104.180242,32.8513472 102.507897,31.1790028 102.466089,29.1721895 L102.466089,6.72096624 C102.466089,4.67234438 104.138433,3 106.228863,3 Z M107.065036,30.2174048 L107.52493,30.2174048 C108.402911,30.2174048 109.113657,29.5066584 109.113657,28.586869 L109.113657,7.26447817 C109.113657,6.34468876 108.402911,5.6339424 107.52493,5.6339424 L107.065036,5.6339424 C106.187055,5.67575101 105.476308,6.38649737 105.476308,7.26447817 L105.476308,28.586869 C105.476308,29.4648498 106.187055,30.1755962 107.065036,30.2174048 Z M137,6.72096624 L137,11.2781047 C137,12.2815113 136.581914,12.6995974 136.163828,12.9086404 C135.954785,13.0340663 134.784144,13.5775782 133.98978,13.9120471 L133.98978,7.22266956 C133.98978,6.34468876 133.279034,5.6339424 132.401053,5.6339424 C131.523072,5.6339424 130.812326,6.34468876 130.812326,7.22266956 L130.812326,28.6286776 C130.812326,29.5066584 131.523072,30.2174048 132.401053,30.2174048 C133.279034,30.2174048 133.98978,29.5066584 133.98978,28.6286776 L133.98978,19.8906782 L133.864354,19.8906782 C133.195417,19.8906782 132.77733,18.9290802 132.77733,18.9290802 L131.773924,16.8386497 L135.536699,16.8386497 C136.456488,16.8386497 137,17.3403531 137,18.4691855 L137,29.1303809 C137,31.1371942 135.369464,32.7677299 133.362651,32.8513472 L131.523072,32.8513472 C129.47445,32.8513472 127.802106,31.1790028 127.802106,29.1303809 L127.802106,6.72096624 C127.802106,4.67234438 129.47445,3 131.523072,3 L133.362651,3 C135.369464,3.08361722 137,4.71415299 137,6.72096624 Z" id="path-1"></path>
        <filter x="-5.9%" y="-23.4%" width="111.9%" height="153.6%" filterUnits="objectBoundingBox" id="filter-2">
            <feOffset dx="0" dy="1" in="SourceAlpha" result="shadowOffsetOuter1"></feOffset>
            <feGaussianBlur stdDeviation="2.5" in="shadowOffsetOuter1" result="shadowBlurOuter1"></feGaussianBlur>
            <feColorMatrix values="0 0 0 0 0   0 0 0 0 0   0 0 0 0 0  0 0 0 0.85546875 0" type="matrix" in="shadowBlurOuter1"></feColorMatrix>
        </filter>
    </defs>
    <g id="Symbols" stroke="none" stroke-width="1" fill="none" fill-rule="evenodd">
        <g id="Nav/White" transform="translate(3.000000, 1.000000)">
            <g id="HERZOG">
                <use fill="black" fill-opacity="1" filter="url(#filter-2)" xlink:href="#path-1"></use>
                <use fill="#FFFFFF" fill-rule="evenodd" xlink:href="#path-1"></use>
            </g>
        </g>
    </g>
</svg>