<?xml version="1.0" encoding="UTF-8" standalone="no"?>
<svg width="264px" height="48px" viewBox="0 0 264 48" version="1.1" xmlns="http://www.w3.org/2000/svg" xmlns:xlink="http://www.w3.org/1999/xlink">
    <!-- Generator: Sketch 49.3 (51167) - http://www.bohemiancoding.com/sketch -->
    <title>Tagline</title>
    <desc>Created with Sketch.</desc>
    <defs></defs>
    <g id="Symbols" stroke="none" stroke-width="1" fill="none" fill-rule="evenodd">
        <g id="Footer" transform="translate(-433.000000, -96.000000)" fill="#7E7E7E">
            <path d="M433.922,96.9 L434.911,96.9 C435.394,96.9 435.578,97.268 435.578,97.544 L435.578,113 L434.405,113 C434.014,113 433.945,112.77 433.922,112.655 L433.922,96.9 Z M448.949762,96.9 L448.949762,113 L448.190762,113 C447.293762,113 447.155762,112.287 447.086762,111.965 L445.315762,104.007 L445.315762,113 L443.659762,113 L443.659762,96.9 L444.418762,96.9 C445.338762,96.9 445.499762,97.337 445.591762,97.797 L447.293762,106.169 L447.293762,96.9 L448.949762,96.9 Z M461.654524,96.9 L461.654524,113 L460.895524,113 C459.998524,113 459.860524,112.287 459.791524,111.965 L458.020524,104.007 L458.020524,113 L456.364524,113 L456.364524,96.9 L457.123524,96.9 C458.043524,96.9 458.204524,97.337 458.296524,97.797 L459.998524,106.169 L459.998524,96.9 L461.654524,96.9 Z M471.116285,96.739 L472.381285,96.739 C473.485285,96.785 474.382285,97.682 474.382285,98.786 L474.382285,111.137 C474.359285,112.241 473.485285,113.115 472.381285,113.161 L471.116285,113.161 C469.989285,113.161 469.069285,112.241 469.046285,111.137 L469.046285,98.786 C469.046285,97.659 469.966285,96.739 471.116285,96.739 Z M471.576285,111.712 L471.829285,111.712 C472.312285,111.712 472.703285,111.321 472.703285,110.815 L472.703285,99.085 C472.703285,98.579 472.312285,98.188 471.829285,98.188 L471.576285,98.188 C471.093285,98.211 470.702285,98.602 470.702285,99.085 L470.702285,110.815 C470.702285,111.298 471.093285,111.689 471.576285,111.712 Z M487.524047,96.9 L485.063047,113 L484.235047,113 C483.407047,113 483.269047,112.011 483.246047,111.873 L480.946047,96.9 L482.211047,96.9 C482.326047,96.9 482.602047,96.992 482.694047,97.521 L484.235047,107.618 L485.868047,96.9 L487.524047,96.9 Z M499.561809,113 L497.744809,113 L496.295809,101.914 L494.846809,113 L493.029809,113 L495.467809,96.9 L496.364809,96.9 C497.054809,96.9 497.169809,97.337 497.238809,97.774 L499.561809,113 Z M511.783571,96.9 L511.231571,98.096 C511.139571,98.303 510.886571,98.533 510.357571,98.533 L509.069571,98.533 C508.839571,98.533 508.678571,98.717 508.655571,98.924 L508.655571,113 L507.482571,113 C507.091571,113 507.022571,112.77 507.022571,112.655 L507.022571,98.533 L504.699571,98.533 L504.699571,97.406 C504.699571,97.13 504.929571,96.9 505.205571,96.9 L511.783571,96.9 Z M518.117333,96.9 L519.106333,96.9 C519.589333,96.9 519.773333,97.268 519.773333,97.544 L519.773333,113 L518.600333,113 C518.209333,113 518.140333,112.77 518.117333,112.655 L518.117333,96.9 Z M533.605094,96.9 L531.144094,113 L530.316094,113 C529.488094,113 529.350094,112.011 529.327094,111.873 L527.027094,96.9 L528.292094,96.9 C528.407094,96.9 528.683094,96.992 528.775094,97.521 L530.316094,107.618 L531.949094,96.9 L533.605094,96.9 Z M542.629856,111.367 L546.079856,111.367 C545.895856,111.781 545.619856,112.425 545.550856,112.563 C545.435856,112.77 545.182856,113 544.653856,113 L540.973856,113 L540.973856,97.36 C540.996856,97.107 541.203856,96.9 541.479856,96.9 L545.780856,96.9 L545.228856,98.096 C545.136856,98.303 544.883856,98.556 544.354856,98.556 L543.020856,98.556 C542.790856,98.556 542.629856,98.717 542.629856,98.947 L542.629856,103.731 L545.113856,103.731 C544.929856,104.145 544.653856,104.812 544.584856,104.95 C544.469856,105.157 544.239856,105.387 543.710856,105.387 L543.020856,105.387 C542.813856,105.387 542.629856,105.571 542.629856,105.778 L542.629856,111.367 Z M570.73038,113 L569.07438,113 L569.07438,107.112 C569.07438,106.33 568.66038,106.077 568.22338,106.077 L567.34938,106.077 L567.34938,113 L565.69338,113 L565.69338,96.9 L568.70638,96.9 C569.81038,96.9 570.73038,97.797 570.73038,98.924 L570.73038,103.892 C570.73038,103.892 570.79938,105.157 570.13238,105.318 C570.77638,105.64 570.73038,106.836 570.73038,106.836 L570.73038,113 Z M567.34938,104.513 L568.22338,104.513 C568.66038,104.513 569.07438,104.329 569.07438,103.593 L569.07438,99.269 C569.07438,98.671 568.66038,98.441 568.22338,98.441 L567.34938,98.441 L567.34938,104.513 Z M583.757141,113 L581.940141,113 L580.491141,101.914 L579.042141,113 L577.225141,113 L579.663141,96.9 L580.560141,96.9 C581.250141,96.9 581.365141,97.337 581.434141,97.774 L583.757141,113 Z M590.757903,96.9 L591.746903,96.9 C592.229903,96.9 592.413903,97.268 592.413903,97.544 L592.413903,113 L591.240903,113 C590.849903,113 590.780903,112.77 590.757903,112.655 L590.757903,96.9 Z M602.749665,111.367 L606.475665,111.367 C606.291665,111.781 606.015665,112.425 605.946665,112.563 C605.831665,112.77 605.578665,113 605.049665,113 L601.093665,113 L601.093665,96.9 L602.243665,96.9 C602.519665,96.923 602.749665,97.13 602.749665,97.406 L602.749665,111.367 Z M627.285189,106.031 L626.779189,106.79 C626.779189,106.79 625.882189,108.055 625.882189,109.251 L625.882189,110.677 C625.882189,111.16 626.273189,111.551 626.756189,111.551 L629.171189,111.551 L629.953189,113 L626.273189,113 C625.146189,113 624.226189,112.08 624.226189,110.953 L624.226189,109.228 C624.226189,109.228 624.226189,107.848 625.123189,106.491 L626.457189,104.513 L625.675189,103.087 C624.870189,101.615 624.939189,100.534 624.939189,100.534 L624.939189,98.901 C624.939189,97.797 625.813189,96.808 626.917189,96.762 L627.952189,96.762 C629.079189,96.762 629.999189,97.774 629.999189,98.901 L629.999189,100.35 C629.999189,100.35 630.091189,101.615 629.286189,103.087 L628.274189,104.559 L632.897189,113 L631.080189,113 L627.285189,106.031 Z M627.469189,103.041 L627.630189,102.788 C627.630189,102.788 628.343189,101.776 628.343189,100.442 L628.343189,99.085 C628.343189,98.602 627.952189,98.211 627.469189,98.211 C626.986189,98.211 626.595189,98.602 626.595189,99.085 L626.595189,100.626 C626.595189,101.569 627.331189,102.788 627.331189,102.788 L627.469189,103.041 Z M438.476,137.227 L438.476,141.114 C438.476,142.218 437.602,143.115 436.498,143.161 L435.486,143.161 C434.336,143.161 433.416,142.241 433.416,141.114 L433.416,128.786 C433.416,127.659 434.336,126.739 435.486,126.739 L436.498,126.739 C437.602,126.762 438.476,127.682 438.476,128.786 L438.476,131.247 C438.476,131.776 438.246,132.029 438.039,132.121 L436.843,132.673 L436.843,129.062 C436.843,128.579 436.452,128.188 435.946,128.188 C435.463,128.188 435.072,128.579 435.072,129.062 L435.072,140.815 C435.072,141.321 435.463,141.712 435.946,141.712 C436.452,141.712 436.843,141.321 436.843,140.815 L436.843,138.653 C436.843,138.124 437.073,137.871 437.28,137.756 C437.418,137.687 438.062,137.411 438.476,137.227 Z M448.006762,126.739 L449.271762,126.739 C450.375762,126.785 451.272762,127.682 451.272762,128.786 L451.272762,141.137 C451.249762,142.241 450.375762,143.115 449.271762,143.161 L448.006762,143.161 C446.879762,143.161 445.959762,142.241 445.936762,141.137 L445.936762,128.786 C445.936762,127.659 446.856762,126.739 448.006762,126.739 Z M448.466762,141.712 L448.719762,141.712 C449.202762,141.712 449.593762,141.321 449.593762,140.815 L449.593762,129.085 C449.593762,128.579 449.202762,128.188 448.719762,128.188 L448.466762,128.188 C447.983762,128.211 447.592762,128.602 447.592762,129.085 L447.592762,140.815 C447.592762,141.298 447.983762,141.689 448.466762,141.712 Z M463.954524,126.9 L463.954524,143 L463.195524,143 C462.298524,143 462.160524,142.287 462.091524,141.965 L460.320524,134.007 L460.320524,143 L458.664524,143 L458.664524,126.9 L459.423524,126.9 C460.343524,126.9 460.504524,127.337 460.596524,127.797 L462.298524,136.169 L462.298524,126.9 L463.954524,126.9 Z M476.107285,130.396 C475.969285,130.465 475.325285,130.764 474.888285,130.948 L474.888285,129.085 C474.888285,128.579 474.497285,128.188 474.014285,128.188 C473.531285,128.188 473.140285,128.579 473.140285,129.085 L473.140285,130.626 C473.140285,131.569 473.853285,132.788 473.853285,132.788 L475.831285,136.514 C476.636285,137.986 476.567285,139.067 476.567285,139.067 L476.567285,141.114 C476.567285,142.241 475.647285,143.161 474.497285,143.161 L473.462285,143.161 C472.358285,143.115 471.484285,142.218 471.461285,141.114 L471.461285,139.458 C471.461285,138.929 471.714285,138.676 471.921285,138.561 C472.059285,138.515 472.726285,138.216 473.140285,138.032 L473.140285,140.838 C473.140285,141.321 473.531285,141.712 474.014285,141.712 C474.497285,141.712 474.888285,141.321 474.888285,140.815 L474.888285,138.975 C474.888285,138.032 474.175285,136.79 474.175285,136.79 L472.197285,133.087 C471.392285,131.615 471.461285,130.534 471.461285,130.534 L471.461285,128.878 C471.461285,127.751 472.381285,126.739 473.531285,126.739 L474.566285,126.739 C475.670285,126.762 476.567285,127.774 476.567285,128.878 L476.567285,129.499 C476.567285,130.028 476.314285,130.281 476.107285,130.396 Z M489.962047,126.9 L489.410047,128.096 C489.318047,128.303 489.065047,128.533 488.536047,128.533 L487.248047,128.533 C487.018047,128.533 486.857047,128.717 486.834047,128.924 L486.834047,143 L485.661047,143 C485.270047,143 485.201047,142.77 485.201047,142.655 L485.201047,128.533 L482.878047,128.533 L482.878047,127.406 C482.878047,127.13 483.108047,126.9 483.384047,126.9 L489.962047,126.9 Z M500.757809,143 L499.101809,143 L499.101809,137.112 C499.101809,136.33 498.687809,136.077 498.250809,136.077 L497.376809,136.077 L497.376809,143 L495.720809,143 L495.720809,126.9 L498.733809,126.9 C499.837809,126.9 500.757809,127.797 500.757809,128.924 L500.757809,133.892 C500.757809,133.892 500.826809,135.157 500.159809,135.318 C500.803809,135.64 500.757809,136.836 500.757809,136.836 L500.757809,143 Z M497.376809,134.513 L498.250809,134.513 C498.687809,134.513 499.101809,134.329 499.101809,133.593 L499.101809,129.269 C499.101809,128.671 498.687809,128.441 498.250809,128.441 L497.376809,128.441 L497.376809,134.513 Z M513.623571,126.9 L513.623571,141.114 C513.623571,142.218 512.726571,143.046 511.645571,143.069 L511.645571,143.092 L510.380571,143.092 C509.253571,143.092 508.333571,142.241 508.333571,141.114 L508.333571,127.36 C508.356571,127.107 508.563571,126.9 508.816571,126.9 L509.989571,126.9 L509.989571,140.815 C509.989571,141.298 510.357571,141.689 510.840571,141.689 L511.093571,141.689 C511.576571,141.689 511.967571,141.298 511.967571,140.815 L511.967571,126.9 L513.623571,126.9 Z M526.259333,137.227 L526.259333,141.114 C526.259333,142.218 525.385333,143.115 524.281333,143.161 L523.269333,143.161 C522.119333,143.161 521.199333,142.241 521.199333,141.114 L521.199333,128.786 C521.199333,127.659 522.119333,126.739 523.269333,126.739 L524.281333,126.739 C525.385333,126.762 526.259333,127.682 526.259333,128.786 L526.259333,131.247 C526.259333,131.776 526.029333,132.029 525.822333,132.121 L524.626333,132.673 L524.626333,129.062 C524.626333,128.579 524.235333,128.188 523.729333,128.188 C523.246333,128.188 522.855333,128.579 522.855333,129.062 L522.855333,140.815 C522.855333,141.321 523.246333,141.712 523.729333,141.712 C524.235333,141.712 524.626333,141.321 524.626333,140.815 L524.626333,138.653 C524.626333,138.124 524.856333,137.871 525.063333,137.756 C525.201333,137.687 525.845333,137.411 526.259333,137.227 Z M539.631094,126.9 L539.079094,128.096 C538.987094,128.303 538.734094,128.533 538.205094,128.533 L536.917094,128.533 C536.687094,128.533 536.526094,128.717 536.503094,128.924 L536.503094,143 L535.330094,143 C534.939094,143 534.870094,142.77 534.870094,142.655 L534.870094,128.533 L532.547094,128.533 L532.547094,127.406 C532.547094,127.13 532.777094,126.9 533.053094,126.9 L539.631094,126.9 Z M545.964856,126.9 L546.953856,126.9 C547.436856,126.9 547.620856,127.268 547.620856,127.544 L547.620856,143 L546.447856,143 C546.056856,143 545.987856,142.77 545.964856,142.655 L545.964856,126.9 Z M557.749618,126.739 L559.014618,126.739 C560.118618,126.785 561.015618,127.682 561.015618,128.786 L561.015618,141.137 C560.992618,142.241 560.118618,143.115 559.014618,143.161 L557.749618,143.161 C556.622618,143.161 555.702618,142.241 555.679618,141.137 L555.679618,128.786 C555.679618,127.659 556.599618,126.739 557.749618,126.739 Z M558.209618,141.712 L558.462618,141.712 C558.945618,141.712 559.336618,141.321 559.336618,140.815 L559.336618,129.085 C559.336618,128.579 558.945618,128.188 558.462618,128.188 L558.209618,128.188 C557.726618,128.211 557.335618,128.602 557.335618,129.085 L557.335618,140.815 C557.335618,141.298 557.726618,141.689 558.209618,141.712 Z M573.69738,126.9 L573.69738,143 L572.93838,143 C572.04138,143 571.90338,142.287 571.83438,141.965 L570.06338,134.007 L570.06338,143 L568.40738,143 L568.40738,126.9 L569.16638,126.9 C570.08638,126.9 570.24738,127.337 570.33938,127.797 L572.04138,136.169 L572.04138,126.9 L573.69738,126.9 Z M598.554903,130.396 C598.416903,130.465 597.772903,130.764 597.335903,130.948 L597.335903,129.085 C597.335903,128.579 596.944903,128.188 596.461903,128.188 C595.978903,128.188 595.587903,128.579 595.587903,129.085 L595.587903,130.626 C595.587903,131.569 596.300903,132.788 596.300903,132.788 L598.278903,136.514 C599.083903,137.986 599.014903,139.067 599.014903,139.067 L599.014903,141.114 C599.014903,142.241 598.094903,143.161 596.944903,143.161 L595.909903,143.161 C594.805903,143.115 593.931903,142.218 593.908903,141.114 L593.908903,139.458 C593.908903,138.929 594.161903,138.676 594.368903,138.561 C594.506903,138.515 595.173903,138.216 595.587903,138.032 L595.587903,140.838 C595.587903,141.321 595.978903,141.712 596.461903,141.712 C596.944903,141.712 597.335903,141.321 597.335903,140.815 L597.335903,138.975 C597.335903,138.032 596.622903,136.79 596.622903,136.79 L594.644903,133.087 C593.839903,131.615 593.908903,130.534 593.908903,130.534 L593.908903,128.878 C593.908903,127.751 594.828903,126.739 595.978903,126.739 L597.013903,126.739 C598.117903,126.762 599.014903,127.774 599.014903,128.878 L599.014903,129.499 C599.014903,130.028 598.761903,130.281 598.554903,130.396 Z M608.568665,126.739 L609.833665,126.739 C610.937665,126.785 611.834665,127.682 611.834665,128.786 L611.834665,141.137 C611.811665,142.241 610.937665,143.115 609.833665,143.161 L608.568665,143.161 C607.441665,143.161 606.521665,142.241 606.498665,141.137 L606.498665,128.786 C606.498665,127.659 607.418665,126.739 608.568665,126.739 Z M609.028665,141.712 L609.281665,141.712 C609.764665,141.712 610.155665,141.321 610.155665,140.815 L610.155665,129.085 C610.155665,128.579 609.764665,128.188 609.281665,128.188 L609.028665,128.188 C608.545665,128.211 608.154665,128.602 608.154665,129.085 L608.154665,140.815 C608.154665,141.298 608.545665,141.689 609.028665,141.712 Z M621.480427,141.367 L625.206427,141.367 C625.022427,141.781 624.746427,142.425 624.677427,142.563 C624.562427,142.77 624.309427,143 623.780427,143 L619.824427,143 L619.824427,126.9 L620.974427,126.9 C621.250427,126.923 621.480427,127.13 621.480427,127.406 L621.480427,141.367 Z M636.071189,126.9 L636.071189,141.114 C636.071189,142.218 635.174189,143.046 634.093189,143.069 L634.093189,143.092 L632.828189,143.092 C631.701189,143.092 630.781189,142.241 630.781189,141.114 L630.781189,127.36 C630.804189,127.107 631.011189,126.9 631.264189,126.9 L632.437189,126.9 L632.437189,140.815 C632.437189,141.298 632.805189,141.689 633.288189,141.689 L633.541189,141.689 C634.024189,141.689 634.415189,141.298 634.415189,140.815 L634.415189,126.9 L636.071189,126.9 Z M649.37395,126.9 L648.82195,128.096 C648.72995,128.303 648.47695,128.533 647.94795,128.533 L646.65995,128.533 C646.42995,128.533 646.26895,128.717 646.24595,128.924 L646.24595,143 L645.07295,143 C644.68195,143 644.61295,142.77 644.61295,142.655 L644.61295,128.533 L642.28995,128.533 L642.28995,127.406 C642.28995,127.13 642.51995,126.9 642.79595,126.9 L649.37395,126.9 Z M655.707712,126.9 L656.696712,126.9 C657.179712,126.9 657.363712,127.268 657.363712,127.544 L657.363712,143 L656.190712,143 C655.799712,143 655.730712,142.77 655.707712,142.655 L655.707712,126.9 Z M667.492474,126.739 L668.757474,126.739 C669.861474,126.785 670.758474,127.682 670.758474,128.786 L670.758474,141.137 C670.735474,142.241 669.861474,143.115 668.757474,143.161 L667.492474,143.161 C666.365474,143.161 665.445474,142.241 665.422474,141.137 L665.422474,128.786 C665.422474,127.659 666.342474,126.739 667.492474,126.739 Z M667.952474,141.712 L668.205474,141.712 C668.688474,141.712 669.079474,141.321 669.079474,140.815 L669.079474,129.085 C669.079474,128.579 668.688474,128.188 668.205474,128.188 L667.952474,128.188 C667.469474,128.211 667.078474,128.602 667.078474,129.085 L667.078474,140.815 C667.078474,141.298 667.469474,141.689 667.952474,141.712 Z M683.440236,126.9 L683.440236,143 L682.681236,143 C681.784236,143 681.646236,142.287 681.577236,141.965 L679.806236,134.007 L679.806236,143 L678.150236,143 L678.150236,126.9 L678.909236,126.9 C679.829236,126.9 679.990236,127.337 680.082236,127.797 L681.784236,136.169 L681.784236,126.9 L683.440236,126.9 Z M695.592998,130.396 C695.454998,130.465 694.810998,130.764 694.373998,130.948 L694.373998,129.085 C694.373998,128.579 693.982998,128.188 693.499998,128.188 C693.016998,128.188 692.625998,128.579 692.625998,129.085 L692.625998,130.626 C692.625998,131.569 693.338998,132.788 693.338998,132.788 L695.316998,136.514 C696.121998,137.986 696.052998,139.067 696.052998,139.067 L696.052998,141.114 C696.052998,142.241 695.132998,143.161 693.982998,143.161 L692.947998,143.161 C691.843998,143.115 690.969998,142.218 690.946998,141.114 L690.946998,139.458 C690.946998,138.929 691.199998,138.676 691.406998,138.561 C691.544998,138.515 692.211998,138.216 692.625998,138.032 L692.625998,140.838 C692.625998,141.321 693.016998,141.712 693.499998,141.712 C693.982998,141.712 694.373998,141.321 694.373998,140.815 L694.373998,138.975 C694.373998,138.032 693.660998,136.79 693.660998,136.79 L691.682998,133.087 C690.877998,131.615 690.946998,130.534 690.946998,130.534 L690.946998,128.878 C690.946998,127.751 691.866998,126.739 693.016998,126.739 L694.051998,126.739 C695.155998,126.762 696.052998,127.774 696.052998,128.878 L696.052998,129.499 C696.052998,130.028 695.799998,130.281 695.592998,130.396 Z" id="Tagline"></path>
        </g>
    </g>
</svg>